<svg xmlns="http://www.w3.org/2000/svg" width="51" height="34" viewBox="0 0 51 34" fill="none">
  <path d="M20.8522 16.9924C20.8866 16.9467 20.9149 16.8967 20.9363 16.8434C20.9682 16.764 20.9841 16.6791 20.9831 16.5935M20.8522 16.9924L20.9831 16.5935M20.8522 16.9924L20.939 17.2528H20.3299H17.5582H17.5452L17.5452 17.2526C17.5132 17.2517 17.4814 17.2571 17.4515 17.2688L17.2923 16.8595L17.4515 17.2688C17.4217 17.2804 17.3944 17.2979 17.3713 17.3203C17.3483 17.3428 17.3299 17.3697 17.3173 17.3994C17.3047 17.4292 17.2982 17.4612 17.2982 17.4936C17.2982 17.526 17.3047 17.558 17.3173 17.5878C17.3299 17.6176 17.3483 17.6445 17.3713 17.6669C17.3944 17.6893 17.4217 17.7069 17.4515 17.7185C17.4814 17.7301 17.5132 17.7356 17.5452 17.7346L17.5582 17.7342V17.7344H20.3299H20.3304C20.63 17.7348 20.9177 17.6159 21.1301 17.4036C21.3425 17.1914 21.4623 16.9032 21.4628 16.6024C21.4628 16.6023 21.4628 16.6022 21.4628 16.6021L21.4628 11.0491V11.0486C21.4631 10.7476 21.3442 10.459 21.1323 10.2462C20.9205 10.0334 20.6332 9.91376 20.3337 9.91322H17.5665C17.5062 9.91625 17.449 9.94206 17.4066 9.9858C17.3631 10.0307 17.3386 10.0911 17.3386 10.154C17.3386 10.217 17.3631 10.2773 17.4066 10.3223C17.449 10.366 17.5062 10.3918 17.5665 10.3948H20.3299H20.3324V10.3948C20.5046 10.3958 20.6693 10.4651 20.7905 10.5872L20.7905 10.5872C20.9117 10.7093 20.9795 10.8743 20.9795 11.0461C20.9795 11.0461 20.9795 11.0461 20.9795 11.0461V13.1397V13.5788H20.5404H17.5665C17.5062 13.5818 17.449 13.6076 17.4066 13.6514C17.3631 13.6963 17.3386 13.7567 17.3386 13.8196C17.3386 13.8826 17.3631 13.9429 17.4066 13.9878L17.0966 14.2883L17.4066 13.9878C17.449 14.0316 17.5062 14.0574 17.5665 14.0604H20.544H20.9831V14.4996V16.5935M20.8522 16.9924L20.9831 16.5935M20.9831 16.5935V16.5968H20.544L20.983 16.5879C20.9831 16.5898 20.9831 16.5917 20.9831 16.5935Z" stroke="#B93C3C" stroke-width="0.878262"/>
  <path d="M24.3951 17.064L24.3951 17.064C24.3344 17.0035 24.2863 16.9317 24.2535 16.8527L24.2535 16.8527C24.2207 16.7736 24.2038 16.6889 24.2038 16.6033V14.5001V14.061H24.643H26.7374C26.91 14.061 27.0753 14.1297 27.1971 14.2517L26.8863 14.5619L27.1971 14.2517C27.3188 14.3736 27.3871 14.5389 27.3871 14.711V16.6033C27.3871 16.7755 27.3188 16.9407 27.1971 17.0627C27.0753 17.1847 26.91 17.2534 26.7374 17.2534H24.8556H24.8547V16.8142C24.8269 16.8144 24.7994 16.8091 24.7738 16.7985L24.3951 17.064ZM24.3951 17.064C24.4558 17.1244 24.5279 17.1723 24.6072 17.2048L24.3951 17.064ZM27.8661 16.602C27.8661 16.6021 27.8661 16.6022 27.8661 16.6023C27.8656 16.9027 27.7463 17.1904 27.5346 17.4025C27.3228 17.6147 27.0359 17.7339 26.7368 17.7344H24.8555C24.5562 17.7338 24.2692 17.6145 24.0572 17.4023C23.8453 17.1902 23.7257 16.9025 23.7248 16.6021V11.0495C23.7254 10.7489 23.8449 10.4609 24.0569 10.2486C24.2688 10.0363 24.5558 9.91686 24.8551 9.91618H27.6181C27.6784 9.91921 27.7356 9.94502 27.7779 9.98876C27.8215 10.0337 27.846 10.094 27.846 10.157C27.846 10.22 27.8215 10.2803 27.7779 10.3252C27.7356 10.369 27.6784 10.3948 27.6181 10.3978H24.8547C24.6818 10.3978 24.5162 10.4666 24.3942 10.5888C24.2722 10.711 24.2038 10.8766 24.2038 11.049V13.1396V13.5788H24.643L26.7368 13.5788C26.7369 13.5788 26.7369 13.5788 26.737 13.5788C26.8855 13.579 27.0324 13.6086 27.1695 13.6658C27.3067 13.723 27.4313 13.8068 27.5362 13.9123C27.6412 14.0179 27.7243 14.1432 27.781 14.2811C27.8376 14.419 27.8665 14.5667 27.8661 14.7159V14.717L27.8661 16.602Z" stroke="#B93C3C" stroke-width="0.878262"/>
  <path d="M32.7119 17.7344H32.6049L32.6069 17.732L31.6949 17.7314C31.2815 17.7312 30.885 17.5666 30.5923 17.2737C30.2997 16.9808 30.1348 16.5833 30.1341 16.1685V11.4762C30.1351 11.0615 30.3 10.6642 30.5926 10.3713C30.8853 10.0784 31.2816 9.91378 31.6949 9.91322H32.7139C33.1272 9.91407 33.5235 10.0791 33.8157 10.3725C34.1081 10.6659 34.2724 11.0638 34.2724 11.4787V16.1715C34.2721 16.5864 34.1073 16.984 33.8146 17.277C33.5219 17.57 33.1253 17.7344 32.7119 17.7344ZM30.6089 11.4779V11.4787L30.6089 16.1719L30.6089 16.1727C30.6095 16.4591 30.7234 16.7337 30.926 16.9363C31.1285 17.1389 31.4033 17.2528 31.6898 17.2528H32.7095C32.9961 17.2528 33.2708 17.1389 33.4734 16.9363C33.6759 16.7337 33.7899 16.4591 33.7904 16.1727V16.1719L33.7904 11.4787L33.7904 11.4779C33.7899 11.1915 33.6759 10.9169 33.4734 10.7144C33.2708 10.5118 32.9961 10.3978 32.7095 10.3978H31.6898C31.4033 10.3978 31.1285 10.5118 30.926 10.7144C30.7234 10.9169 30.6095 11.1916 30.6089 11.4779Z" stroke="#B93C3C" stroke-width="0.878262"/>
  <path d="M36.7584 7.68887L36.757 7.68887C36.5124 7.68913 36.2781 7.78658 36.1054 7.95956L36.1045 7.96053C35.9548 8.11137 35.862 8.30937 35.8417 8.5208C35.8215 8.73223 35.8749 8.94424 35.9931 9.12079C36.1113 9.29735 36.287 9.42762 36.4905 9.48922C36.694 9.55082 36.9125 9.53989 37.1088 9.4583C37.3052 9.37673 37.467 9.22962 37.567 9.04218C37.6671 8.85477 37.6992 8.63851 37.658 8.43014C37.6168 8.22177 37.5048 8.03396 37.3408 7.89875C37.1768 7.76353 36.971 7.68931 36.7584 7.68887ZM37.5368 9.77961C37.3061 9.93379 37.0351 10.0159 36.7579 10.0156C36.3869 10.0153 36.0311 9.86745 35.7685 9.60437C35.5059 9.34127 35.358 8.98435 35.3577 8.61191C35.3574 8.33371 35.4395 8.06175 35.5935 7.83046C35.7475 7.59917 35.9665 7.41898 36.2225 7.31257C36.4786 7.20615 36.7604 7.17825 37.0322 7.23236C37.3041 7.28647 37.5539 7.42018 37.7501 7.61671C37.9462 7.81324 38.0799 8.06376 38.134 8.3366C38.1881 8.60945 38.1602 8.89224 38.0538 9.14914C37.9475 9.40604 37.7675 9.62542 37.5368 9.77961Z" stroke="#B93C3C" stroke-width="0.878262"/>
  <path d="M23.5508 22.1939L23.5506 22.1938C23.5057 22.1487 23.4448 22.1235 23.3816 22.1235C23.3184 22.1235 23.2575 22.1487 23.2126 22.1938C23.1676 22.2388 23.1421 22.3002 23.1421 22.3643C23.1421 22.4283 23.1675 22.4896 23.2124 22.5346C23.2125 22.5347 23.2125 22.5347 23.2126 22.5348L24.3459 23.6685L25.1285 24.4513L24.0221 24.4179C19.8769 24.2926 16.3503 23.7096 13.8469 22.9305C12.598 22.5418 11.5831 22.0979 10.8705 21.6239C10.1892 21.1706 9.65355 20.6012 9.65355 19.9276C9.65355 19.4012 10.031 18.8819 10.6326 18.4208C11.2546 17.944 12.2059 17.4573 13.5611 17.0085L23.5508 22.1939ZM23.5508 22.1939L25.8716 24.5167C25.8717 24.5168 25.8718 24.5169 25.8718 24.5169C25.9167 24.5621 25.9421 24.6234 25.9421 24.6874C25.9421 24.7515 25.9167 24.8128 25.8718 24.8579L23.5508 22.1939ZM13.7905 16.1728L13.5935 16.5637C13.5654 16.5495 13.5348 16.541 13.5035 16.5387C13.4723 16.5364 13.4409 16.5403 13.4111 16.5501C11.9532 17.0341 10.8763 17.5865 10.1721 18.1752C9.47179 18.7606 9.17389 19.3501 9.17389 19.9282C9.17389 20.596 9.55399 21.2352 10.353 21.8421C11.1529 22.4498 12.3196 22.9808 13.7508 23.4228C16.6082 24.3053 20.4041 24.7984 24.102 24.9047L25.1195 24.9339L24.4 25.654L23.2124 26.8426L23.2073 26.8477L23.2021 26.8526C23.1785 26.8747 23.1596 26.9013 23.1465 26.9309C23.1334 26.9605 23.1263 26.9925 23.1258 27.025C23.1253 27.0574 23.1312 27.0896 23.1434 27.1197C23.1555 27.1497 23.1735 27.177 23.1963 27.1998L22.8855 27.51L23.1963 27.1998C23.2191 27.2226 23.2462 27.2406 23.2759 27.2526C23.3057 27.2647 23.3375 27.2706 23.3696 27.2701C23.4016 27.2695 23.4333 27.2625 23.4626 27.2495L23.641 27.6508L23.4626 27.2495C23.492 27.2365 23.5184 27.2176 23.5405 27.194L23.5455 27.1887L23.5506 27.1835L25.8716 24.8581L13.7905 16.1728ZM13.7905 16.1728L13.5935 16.5637C13.6216 16.5778 13.6467 16.5974 13.6674 16.6214C13.688 16.6454 13.7038 16.6732 13.7138 16.7034C13.7237 16.7335 13.7276 16.7654 13.7253 16.7971C13.723 16.8288 13.7145 16.8597 13.7002 16.8881C13.686 16.9164 13.6664 16.9416 13.6425 16.9623C13.6186 16.9829 13.591 16.9986 13.5612 17.0085L13.7905 16.1728Z" stroke="#B93C3C" stroke-width="0.878262"/>
  <path d="M37.9789 16.5457L37.9861 16.5484L37.9934 16.5508C39.4509 17.0341 40.5276 17.5864 41.2317 18.1751C41.9318 18.7605 42.2295 19.35 42.2293 19.928V19.9282C42.2293 20.5546 41.8875 21.1591 41.1665 21.7395C40.4434 22.3216 39.3842 22.8396 38.0728 23.2799C35.457 24.1581 31.9502 24.6906 28.4377 24.8649L28.4162 24.8648L28.4135 24.8649C28.3509 24.8652 28.2905 24.841 28.2453 24.7971C28.2001 24.7531 28.1738 24.693 28.1723 24.6295C28.1708 24.5661 28.1942 24.5047 28.2373 24.4586L27.9165 24.1588L28.2373 24.4586C28.2804 24.4126 28.3396 24.3855 28.4021 24.3829L28.4021 24.3829L28.4054 24.3827C32.4254 24.1848 35.6994 23.5842 37.9818 22.8171C39.1204 22.4344 40.0331 22.0033 40.6706 21.5457C41.2852 21.1044 41.7508 20.5595 41.7508 19.9282C41.7508 19.4015 41.3729 18.8832 40.7716 18.4227C40.1498 17.9465 39.1988 17.4596 37.844 17.0082L37.8364 17.0056L37.8287 17.0034C37.7979 16.9943 37.7691 16.9792 37.7442 16.9587C37.7193 16.9383 37.6987 16.9129 37.6836 16.8842C37.6686 16.8555 37.6595 16.8241 37.6568 16.7917C37.6542 16.7593 37.658 16.7267 37.6682 16.6959C37.6784 16.6651 37.6947 16.6367 37.716 16.6124C37.7373 16.5881 37.7632 16.5684 37.7922 16.5545C37.8212 16.5405 37.8526 16.5326 37.8847 16.5311C37.9167 16.5296 37.9487 16.5345 37.9789 16.5457Z" stroke="#B93C3C" stroke-width="0.878262"/>
</svg>