<svg width="69" height="22" viewBox="0 0 69 22" fill="none" xmlns="http://www.w3.org/2000/svg">
<g id="Group 14396">
<path id="Star 1" d="M10.5798 0.75L12.8639 7.77859L20.2554 7.77859L14.2755 12.1225L16.5596 19.1511L10.5798 14.8072L4.59992 19.1511L6.88402 12.1225L0.904178 7.77859L8.29567 7.77859L10.5798 0.75Z" fill="#FEB801"/>
<path id="Star 2" d="M34.3179 0.75L36.602 7.77859L43.9935 7.77859L38.0136 12.1225L40.2977 19.1511L34.3179 14.8072L28.338 19.1511L30.6221 12.1225L24.6423 7.77859L32.0338 7.77859L34.3179 0.75Z" fill="#FEB801"/>
<path id="Star 3" d="M58.0564 0.75L60.3405 7.77859L67.732 7.77859L61.7521 12.1225L64.0362 19.1511L58.0564 14.8072L52.0765 19.1511L54.3606 12.1225L48.3808 7.77859L55.7723 7.77859L58.0564 0.75Z" fill="#FEB801"/>
</g>
</svg>
