<svg width="93" height="22" viewBox="0 0 93 22" fill="none" xmlns="http://www.w3.org/2000/svg">
<g id="Group 14396">
<path id="Star 1" d="M10.6423 0.75L12.9264 7.77859L20.3179 7.77859L14.338 12.1225L16.6221 19.1511L10.6423 14.8072L4.66242 19.1511L6.94652 12.1225L0.966678 7.77859L8.35817 7.77859L10.6423 0.75Z" fill="#FEB801"/>
<path id="Star 2" d="M34.3804 0.75L36.6645 7.77859L44.056 7.77859L38.0761 12.1225L40.3602 19.1511L34.3804 14.8072L28.4005 19.1511L30.6846 12.1225L24.7048 7.77859L32.0963 7.77859L34.3804 0.75Z" fill="#FEB801"/>
<path id="Star 3" d="M58.1189 0.75L60.403 7.77859L67.7945 7.77859L61.8146 12.1225L64.0987 19.1511L58.1189 14.8072L52.139 19.1511L54.4231 12.1225L48.4433 7.77859L55.8348 7.77859L58.1189 0.75Z" fill="#FEB801"/>
<path id="Star 4" d="M81.857 0.75L84.1411 7.77859L91.5326 7.77859L85.5527 12.1225L87.8368 19.1511L81.857 14.8072L75.8771 19.1511L78.1612 12.1225L72.1814 7.77859L79.5729 7.77859L81.857 0.75Z" fill="#FEB801"/>
</g>
</svg>
