<svg width="116" height="22" viewBox="0 0 116 22" fill="none" xmlns="http://www.w3.org/2000/svg">
<g id="Group 14396">
<path id="Star 1" d="M10.5173 0.75L12.8014 7.77859L20.1929 7.77859L14.213 12.1225L16.4971 19.1511L10.5173 14.8072L4.53742 19.1511L6.82152 12.1225L0.841678 7.77859L8.23317 7.77859L10.5173 0.75Z" fill="#FEB801"/>
<path id="Star 2" d="M34.2554 0.75L36.5395 7.77859L43.931 7.77859L37.9511 12.1225L40.2352 19.1511L34.2554 14.8072L28.2755 19.1511L30.5596 12.1225L24.5798 7.77859L31.9713 7.77859L34.2554 0.75Z" fill="#FEB801"/>
<path id="Star 3" d="M57.9939 0.75L60.278 7.77859L67.6695 7.77859L61.6896 12.1225L63.9737 19.1511L57.9939 14.8072L52.014 19.1511L54.2981 12.1225L48.3183 7.77859L55.7098 7.77859L57.9939 0.75Z" fill="#FEB801"/>
<path id="Star 4" d="M81.732 0.75L84.0161 7.77859L91.4076 7.77859L85.4277 12.1225L87.7118 19.1511L81.732 14.8072L75.7521 19.1511L78.0362 12.1225L72.0564 7.77859L79.4479 7.77859L81.732 0.75Z" fill="#FEB801"/>
<path id="Star 5" d="M105.47 0.75L107.754 7.77859L115.146 7.77859L109.166 12.1225L111.45 19.1511L105.47 14.8072L99.4902 19.1511L101.774 12.1225L95.7945 7.77859L103.186 7.77859L105.47 0.75Z" fill="#FEB801"/>
</g>
</svg>
