<svg width="23" height="22" viewBox="0 0 23 22" fill="none" xmlns="http://www.w3.org/2000/svg">
<g id="Icon">
<g id="Icon_2">
<path id="Path" d="M19.5847 4.52673C19.1241 4.0808 18.5772 3.72706 17.9752 3.48571C17.3732 3.24436 16.728 3.12014 16.0764 3.12014C15.4249 3.12014 14.7796 3.24436 14.1777 3.48571C13.5757 3.72706 13.0288 4.0808 12.5682 4.52673L11.6148 5.45402L10.6584 4.52864C9.71938 3.67054 8.47158 3.20052 7.18012 3.21845C5.88866 3.23638 4.65531 3.74084 3.74215 4.62466C2.82898 5.50847 2.30796 6.70197 2.28979 7.95157C2.27162 9.20117 2.75774 10.4084 3.64485 11.3167L4.60026 12.2411L11.6148 19.0311L18.6322 12.2411L19.5876 11.3158C20.0483 10.8699 20.4137 10.3405 20.6629 9.758C20.912 9.17546 21.0402 8.55112 21.0399 7.92065C21.0396 7.29018 20.9109 6.66595 20.6613 6.0836C20.4116 5.50126 20.0457 4.97223 19.5847 4.52673V4.52673Z" stroke="#707070" stroke-width="1.38673" stroke-linecap="round" stroke-linejoin="round"/>
</g>
</g>
</svg>
